/* XPM */
static char * ennemie_idle_3_2_xpm[] = {
"64 64 9 1",
" 	c #222222",
".	c #483B3A",
"+	c #775C55",
"@	c #2CE8F5",
"#	c #FFFFFF",
"$	c #0095E9",
"%	c #262B44",
"&	c #124E89",
"*	c #181425",
"            ....                ............    ....            ",
"            ....                ............    ....            ",
"            ....                ............    ....            ",
"            ....                ............    ....            ",
"    ........................................................++++",
"    ........................................................++++",
"    ........................................................++++",
"    ........................................................++++",
"............................................................++++",
"............................................................++++",
"............................................................++++",
"............................................................++++",
"............................................................++++",
"............................................................++++",
"............................................................++++",
"............................................................++++",
"    ........................................................++++",
"    ........................................................++++",
"    ........................................................++++",
"    ........................................................++++",
"..........................@@####@@@@@@......................++++",
"..........................@@####@@@@@@......................++++",
"......................@@##@@@@@@$$$$$$$$$$$$................++++",
"......................@@##@@@@@@$$$$$$$$$$$$................++++",
"    ..................@@@@@@$$$$$$$$$$$$$$$$....................",
"    ..................@@@@@@$$$$$$$$$$$$$$$$....................",
"    ................$$$$@@@@@@$$$$@@@@$$$$$$$$..................",
"    ................$$$$@@@@@@$$$$@@@@$$$$$$$$..................",
"    ................$$$$$$$$$$$$$$$$$$$$##%%$$..............++++",
"    ................$$$$$$$$$$$$$$$$$$$$##%%$$..............++++",
"    ..............$$$$$$&&&&&&&&&&&&&&&&%%**$$$$............++++",
"    ..............$$$$$$&&&&&&&&&&&&&&&&%%**$$$$............++++",
"    ..............$$&&&&&&&&&&&&&&&&&&&&&&&&%%$$................",
"    ..............$$&&&&&&&&&&&&&&&&&&&&&&&&%%$$................",
"    ..............$$&&&&&&&&&&&&&&&&&&&&&&&&%%$$................",
"    ..............$$&&&&&&&&&&&&&&&&&&&&&&&&%%$$................",
"..................&&&&&&&&&&&&&&&&&&&&&&&&%%%%%%............++++",
"..................&&&&&&&&&&&&&&&&&&&&&&&&%%%%%%............++++",
"....................&&&&&&&&&&&&&&&&&&%%%%%%%%..............++++",
"....................&&&&&&&&&&&&&&&&&&%%%%%%%%..............++++",
"........................%%%%&&%%%%%%%%%%%%..................++++",
"........................%%%%&&%%%%%%%%%%%%..................++++",
"............................................................++++",
"............................................................++++",
"    ............................................................",
"    ............................................................",
"    ............................................................",
"    ............................................................",
"    ............................................................",
"    ............................................................",
"    ............................................................",
"    ............................................................",
"    ........................................................++++",
"    ........................................................++++",
"    ........................................................++++",
"    ........................................................++++",
"    ........................................................++++",
"    ........................................................++++",
"    ........................................................++++",
"    ........................................................++++",
"++++++++++++........++++....++++++++++++++++....++++++++++++++++",
"++++++++++++........++++....++++++++++++++++....++++++++++++++++",
"++++++++++++........++++....++++++++++++++++....++++++++++++++++",
"++++++++++++........++++....++++++++++++++++....++++++++++++++++"};
