/* XPM */
static char * player_run_0_2_xpm[] = {
"64 64 11 1",
" 	c #222222",
".	c #483B3A",
"+	c #0E071B",
"@	c #5AC54F",
"#	c #775C55",
"$	c #C7CFDD",
"%	c #33984B",
"&	c #92A1B9",
"*	c #657392",
"=	c #1E6F50",
"-	c #424C6E",
"            ....          +++++++++++++++...    ....            ",
"            ....          +++++++++++++++...    ....            ",
"            ....          +++++++++++++++...    ....            ",
"            ....          +++++++++++++++...    ....            ",
"    ...............+++++++++++@@@@@@@@+++++++++++...........####",
"    ...............+++++++++++@@@@@@@@+++++++++++...........####",
"    ...............+++++++++++@@@@@@@@+++++++++++...........####",
"    ...............+++++++++++@@@@@@@@+++++++++++...........####",
"...............++++$$$$$$$++++%%%%%%%%+++$$$$$$$$++++.......####",
"...............++++$$$$$$$++++%%%%%%%%+++$$$$$$$$++++.......####",
"...............++++$$$$$$$++++%%%%%%%%+++$$$$$$$$++++.......####",
"...............++++$$$$&&&++++%%%%%%%%+++&&&&$$$$++++.......####",
"...............++++$$$$&&&++++%%%%%%%%+++&&&&$$$$++++.......####",
"...............++++$$$$&&&++++%%%%%%%%+++&&&&$$$$++++.......####",
"...............++++$$$$&&&++++%%%%%%%%+++&&&&$$$$++++.......####",
"...........++++$$$$&&&&&&&&&&&&&&&&&&&&&&&&&&&&&&$$$$+++....####",
"    .......++++$$$$&&&&&&&&&&&&&&&&&&&&&&&&&&&&&&$$$$+++....####",
"    .......++++$$$$&&&&&&&&&&&&&&&&&&&&&&&&&&&&&&$$$$+++....####",
"    .......++++$$$$&&&&&&&&&&&&&&&&&&&&&&&&&&&&&&$$$$+++....####",
"    .......++++&&&&&&&&++++++++++++++++++++++&&&&&&&&+++....####",
"...........++++&&&&&&&&++++++++++++++++++++++&&&&&&&&+++....####",
"...........++++&&&&&&&&++++++++++++++++++++++&&&&&&&&+++....####",
"...........++++&&&&&&&&++++++++++++++++++++++&&&&&&&&+++....####",
"...........++++********++++++++++++++++++++++********+++....####",
"    .......++++********++++++++++++++++++++++********+++........",
"    .......++++********++++++++++++++++++++++********+++........",
"    ...........++++&&&&$$$$$$$++++++++$$$$$$$&&&&++++...........",
"    ...........++++&&&&$$$$$$$++++++++$$$$$$$&&&&++++...........",
"    ...........++++&&&&$$$$$$$++++++++$$$$$$$&&&&++++.......####",
"    ...........++++&&&&$$$$$$$++++++++$$$$$$$&&&&++++.......####",
"    ...........++++++++&&&&&&&++++++++&&&&&&&++++++++.......####",
"    ...........++++++++&&&&&&&++++++++&&&&&&&++++++++.......####",
"    ...........++++++++&&&&&&&++++++++&&&&&&&++++++++...........",
"    ...........++++++++&&&&&&&++++++++&&&&&&&++++++++...........",
"    +++++++++++++++++++++++++++++++++++++++++$$$$++++...........",
"    +++++++++++++++++++++++++++++++++++++++++$$$$++++...........",
"....+++++++++++++++++++++++++++++++++++++++++$$$$++++.......####",
"....+++++++++++++++++++++++++++++++++++++++++$$$$++++.......####",
"....++++&&&&&&&$$$$$$$$$$$++++********&&&********$$$$+++....####",
"....++++&&&&&&&$$$$$$$$$$$++++********&&&********$$$$+++....####",
"....++++&&&&&&&$$$$$$$$$$$++++********&&&********$$$$+++....####",
"....++++&&&====%%%%%%%%$$$++++&&&&&&&&&&&----%%%%%%%%+++....####",
"....++++&&&====%%%%%%%%$$$++++&&&&&&&&&&&----%%%%%%%%+++....####",
"....++++&&&====%%%%%%%%$$$++++&&&&&&&&&&&----%%%%%%%%+++....####",
"    ++++&&&====%%%%%%%%$$$++++&&&&&&&&&&&----%%%%%%%%+++........",
"    ++++***====%%%%%%%%&&&++++***********++++****&&&&+++........",
"    ++++***====%%%%%%%%&&&++++***********++++****&&&&+++........",
"    ++++***====%%%%%%%%&&&++++***********++++****&&&&+++........",
"    ++++***====%%%%%%%%&&&++++***********++++****&&&&+++........",
"    ++++***========%%%%&&&++++********&&&++++++++++++...........",
"    ++++***========%%%%&&&++++********&&&++++++++++++...........",
"    ++++***========%%%%&&&++++********&&&++++++++++++...........",
"    ++++***========%%%%&&&++++********&&&++++++++++++.......####",
"    ....+++********&&&&+++&&&&+++++++++++++++...............####",
"    ....+++********&&&&+++&&&&+++++++++++++++...............####",
"    ....+++********&&&&+++&&&&+++++++++++++++...............####",
"    .......++++++++++++*******+++++++++++++++...............####",
"    .......++++++++++++*******+++++++++++++++...............####",
"    .......++++++++++++*******+++++++++++++++...............####",
"    .......++++++++++++*******+++++++++++++++...............####",
"############........###++++++++++++++++++###....################",
"############........###++++++++++++++++++###....################",
"############........###++++++++++++++++++###....################",
"############........###++++++++++++++++++###....################"};
