/* XPM */
static char * player_idle_06_xpm[] = {
"64 64 8 1",
" 	c None",
".	c #0E071B",
"+	c #5AC54F",
"@	c #C7CFDD",
"#	c #33984B",
"$	c #92A1B9",
"%	c #657392",
"&	c #424C6E",
"                            ........                            ",
"                            ........                            ",
"                            ........                            ",
"                            ........                            ",
"                ............++++++++............                ",
"                ............++++++++............                ",
"                ............++++++++............                ",
"                ............++++++++............                ",
"            ....@@@@@@@@....########....@@@@@@@@....            ",
"            ....@@@@@@@@....########....@@@@@@@@....            ",
"            ....@@@@@@@@....########....@@@@@@@@....            ",
"            ....@@@@@@@@....########....@@@@@@@@....            ",
"            ....@@@@$$$$....########....$$$$@@@@....            ",
"            ....@@@@$$$$....########....$$$$@@@@....            ",
"            ....@@@@$$$$....########....$$$$@@@@....            ",
"            ....@@@@$$$$....########....$$$$@@@@....            ",
"        ....@@@@$$$$$$$$$$$$$$$$$$$$$$$$$$$$$$$$@@@@....        ",
"        ....@@@@$$$$$$$$$$$$$$$$$$$$$$$$$$$$$$$$@@@@....        ",
"        ....@@@@$$$$$$$$$$$$$$$$$$$$$$$$$$$$$$$$@@@@....        ",
"        ....@@@@$$$$$$$$$$$$$$$$$$$$$$$$$$$$$$$$@@@@....        ",
"        ....$$$$$$$$........................$$$$$$$$....        ",
"        ....$$$$$$$$........................$$$$$$$$....        ",
"        ....$$$$$$$$........................$$$$$$$$....        ",
"        ....$$$$$$$$........................$$$$$$$$....        ",
"        ....%%%%%%%%........................%%%%%%%%....        ",
"        ....%%%%%%%%........................%%%%%%%%....        ",
"        ....%%%%%%%%........................%%%%%%%%....        ",
"        ....%%%%%%%%........................%%%%%%%%....        ",
"            ....$$$$@@@@@@@@........@@@@@@@@$$$$....            ",
"            ....$$$$@@@@@@@@........@@@@@@@@$$$$....            ",
"            ....$$$$@@@@@@@@........@@@@@@@@$$$$....            ",
"            ....$$$$@@@@@@@@........@@@@@@@@$$$$....            ",
"            ........$$$$$$$$........$$$$$$$$........            ",
"            ........$$$$$$$$........$$$$$$$$........            ",
"            ........$$$$$$$$........$$$$$$$$........            ",
"            ........$$$$$$$$........$$$$$$$$........            ",
"............................................@@@@@@@@....        ",
"............................................@@@@@@@@....        ",
"............................................@@@@@@@@....        ",
"............................................@@@@@@@@....        ",
"....$$$$$$$$@@@@@@@@@@@@....%%%%%%%%$$$$%%%%$$$$%%%%@@@@....    ",
"....$$$$$$$$@@@@@@@@@@@@....%%%%%%%%$$$$%%%%$$$$%%%%@@@@....    ",
"....$$$$$$$$@@@@@@@@@@@@....%%%%%%%%$$$$%%%%$$$$%%%%@@@@....    ",
"....$$$$$$$$@@@@@@@@@@@@....%%%%%%%%$$$$%%%%$$$$%%%%@@@@....    ",
"....$$$$####++++++++@@@@....$$$$$$$$$$$$%%%%&&&&%%%%@@@@....    ",
"....$$$$####++++++++@@@@....$$$$$$$$$$$$%%%%&&&&%%%%@@@@....    ",
"....$$$$####++++++++@@@@....$$$$$$$$$$$$%%%%&&&&%%%%@@@@....    ",
"....$$$$####++++++++@@@@....$$$$$$$$$$$$%%%%&&&&%%%%@@@@....    ",
"....%%%%########++++$$$$....%%%%%%%%%%%%%%%%....########....    ",
"....%%%%########++++$$$$....%%%%%%%%%%%%%%%%....########....    ",
"....%%%%########++++$$$$....%%%%%%%%%%%%%%%%....########....    ",
"....%%%%########++++$$$$....%%%%%%%%%%%%%%%%....########....    ",
"....%%%%########++++$$$$....$$$$$$$$$$$$$$$$....%%%%$$$$....    ",
"....%%%%########++++$$$$....$$$$$$$$$$$$$$$$....%%%%$$$$....    ",
"....%%%%########++++$$$$....$$$$$$$$$$$$$$$$....%%%%$$$$....    ",
"....%%%%########++++$$$$....$$$$$$$$$$$$$$$$....%%%%$$$$....    ",
"    ....%%%%%%%%$$$$....%%%%........%%%%%%%%............        ",
"    ....%%%%%%%%$$$$....%%%%........%%%%%%%%............        ",
"    ....%%%%%%%%$$$$....%%%%........%%%%%%%%............        ",
"    ....%%%%%%%%$$$$....%%%%........%%%%%%%%............        ",
"        ............$$$$$$$$........$$$$$$$$....                ",
"        ............$$$$$$$$........$$$$$$$$....                ",
"        ............$$$$$$$$........$$$$$$$$....                ",
"        ............$$$$$$$$........$$$$$$$$....                "};
