/* XPM */
static char * bot_wall_right_xpm[] = {
"64 64 4 1",
" 	c #222222",
".	c #483B3A",
"+	c #AA8D7A",
"@	c #D3BFA9",
"            ....                ............    ++++++++++++    ",
"            ....                ............    ++++++++++++    ",
"            ....                ............    ++++++++++++    ",
"            ....                ............    ++++++++++++    ",
"    ........................................    @@@@@@@@@@@@    ",
"    ........................................    @@@@@@@@@@@@    ",
"    ........................................    @@@@@@@@@@@@    ",
"    ........................................    @@@@@@@@@@@@    ",
"............................................                    ",
"............................................                    ",
"............................................                    ",
"............................................                    ",
"............................................    ++++++++++++    ",
"............................................    ++++++++++++    ",
"............................................    ++++++++++++    ",
"............................................    ++++++++++++    ",
"    ........................................    ++++++++++++    ",
"    ........................................    ++++++++++++    ",
"    ........................................    ++++++++++++    ",
"    ........................................    ++++++++++++    ",
"............................................    ++++++++++++    ",
"............................................    ++++++++++++    ",
"............................................    ++++++++++++    ",
"............................................    ++++++++++++    ",
"    ........................................    ++++++++++++    ",
"    ........................................    ++++++++++++    ",
"    ........................................    ++++++++++++    ",
"    ........................................    ++++++++++++    ",
"    ........................................    ++++++++++++    ",
"    ........................................    ++++++++++++    ",
"    ........................................    ++++++++++++    ",
"    ........................................    ++++++++++++    ",
"    ........................................    @@@@@@@@@@@@    ",
"    ........................................    @@@@@@@@@@@@    ",
"    ........................................    @@@@@@@@@@@@    ",
"    ........................................    @@@@@@@@@@@@    ",
"............................................                    ",
"............................................                    ",
"............................................                    ",
"............................................                    ",
"............................................    ++++++++++++    ",
"............................................    ++++++++++++    ",
"............................................    ++++++++++++    ",
"............................................    ++++++++++++    ",
"    ........................................    ++++++++++++    ",
"    ........................................    ++++++++++++    ",
"    ........................................    ++++++++++++    ",
"    ........................................    ++++++++++++    ",
"                                                ++++++++++++    ",
"                                                ++++++++++++    ",
"                                                ++++++++++++    ",
"                                                ++++++++++++    ",
"++++++++++++++++++++    ....++++++++++++++++++++++++++++++++    ",
"++++++++++++++++++++    ....++++++++++++++++++++++++++++++++    ",
"++++++++++++++++++++    ....++++++++++++++++++++++++++++++++    ",
"++++++++++++++++++++    ....++++++++++++++++++++++++++++++++    ",
"++++++++++++++++++++    ++++++++++++++++++++++++++++++++++++    ",
"++++++++++++++++++++    ++++++++++++++++++++++++++++++++++++    ",
"++++++++++++++++++++    ++++++++++++++++++++++++++++++++++++    ",
"++++++++++++++++++++    ++++++++++++++++++++++++++++++++++++    ",
"@@@@@@@@@@@@@@@@@@@@    @@@@@@@@@@@@@@@@@@@@@@@@@@@@@@@@@@@@    ",
"@@@@@@@@@@@@@@@@@@@@    @@@@@@@@@@@@@@@@@@@@@@@@@@@@@@@@@@@@    ",
"@@@@@@@@@@@@@@@@@@@@    @@@@@@@@@@@@@@@@@@@@@@@@@@@@@@@@@@@@    ",
"@@@@@@@@@@@@@@@@@@@@    @@@@@@@@@@@@@@@@@@@@@@@@@@@@@@@@@@@@    "};
