/* XPM */
static char * bot_wall_left_xpm[] = {
"64 64 5 1",
" 	c #222222",
".	c #AA8D7A",
"+	c #483B3A",
"@	c #775C55",
"#	c #D3BFA9",
"    ............                ++++++++++++    ++++            ",
"    ............                ++++++++++++    ++++            ",
"    ............                ++++++++++++    ++++            ",
"    ............                ++++++++++++    ++++            ",
"    ............    ++++++++++++++++++++++++++++++++++++++++@@@@",
"    ............    ++++++++++++++++++++++++++++++++++++++++@@@@",
"    ............    ++++++++++++++++++++++++++++++++++++++++@@@@",
"    ............    ++++++++++++++++++++++++++++++++++++++++@@@@",
"                    ++++++++++++++++++++++++++++++++++++++++@@@@",
"                    ++++++++++++++++++++++++++++++++++++++++@@@@",
"                    ++++++++++++++++++++++++++++++++++++++++@@@@",
"                    ++++++++++++++++++++++++++++++++++++++++@@@@",
"    ............    ++++++++++++++++++++++++++++++++++++++++@@@@",
"    ............    ++++++++++++++++++++++++++++++++++++++++@@@@",
"    ............    ++++++++++++++++++++++++++++++++++++++++@@@@",
"    ............    ++++++++++++++++++++++++++++++++++++++++@@@@",
"    ............    ++++++++++++++++++++++++++++++++++++++++@@@@",
"    ............    ++++++++++++++++++++++++++++++++++++++++@@@@",
"    ............    ++++++++++++++++++++++++++++++++++++++++@@@@",
"    ............    ++++++++++++++++++++++++++++++++++++++++@@@@",
"    ............    ++++++++++++++++++++++++++++++++++++++++@@@@",
"    ............    ++++++++++++++++++++++++++++++++++++++++@@@@",
"    ............    ++++++++++++++++++++++++++++++++++++++++@@@@",
"    ............    ++++++++++++++++++++++++++++++++++++++++@@@@",
"    ............    ++++++++++++++++++++++++++++++++++++++++++++",
"    ............    ++++++++++++++++++++++++++++++++++++++++++++",
"    ............    ++++++++++++++++++++++++++++++++++++++++++++",
"    ............    ++++++++++++++++++++++++++++++++++++++++++++",
"    ............    ++++++++++++++++++++++++++++++++++++++++@@@@",
"    ............    ++++++++++++++++++++++++++++++++++++++++@@@@",
"    ............    ++++++++++++++++++++++++++++++++++++++++@@@@",
"    ............    ++++++++++++++++++++++++++++++++++++++++@@@@",
"    ############    ++++++++++++++++++++++++++++++++++++++++++++",
"    ############    ++++++++++++++++++++++++++++++++++++++++++++",
"    ############    ++++++++++++++++++++++++++++++++++++++++++++",
"    ############    ++++++++++++++++++++++++++++++++++++++++++++",
"                    ++++++++++++++++++++++++++++++++++++++++@@@@",
"                    ++++++++++++++++++++++++++++++++++++++++@@@@",
"                    ++++++++++++++++++++++++++++++++++++++++@@@@",
"                    ++++++++++++++++++++++++++++++++++++++++@@@@",
"    ............    ++++++++++++++++++++++++++++++++++++++++@@@@",
"    ............    ++++++++++++++++++++++++++++++++++++++++@@@@",
"    ............    ++++++++++++++++++++++++++++++++++++++++@@@@",
"    ............    ++++++++++++++++++++++++++++++++++++++++@@@@",
"    ............    ++++++++++++++++++++++++++++++++++++++++++++",
"    ............    ++++++++++++++++++++++++++++++++++++++++++++",
"    ............    ++++++++++++++++++++++++++++++++++++++++++++",
"    ............    ++++++++++++++++++++++++++++++++++++++++++++",
"    ............                                                ",
"    ............                                                ",
"    ............                                                ",
"    ............                                                ",
"    ................................++++    ....................",
"    ................................++++    ....................",
"    ................................++++    ....................",
"    ................................++++    ....................",
"    ....................................    ....................",
"    ....................................    ....................",
"    ....................................    ....................",
"    ....................................    ....................",
"    ####################################    ####################",
"    ####################################    ####################",
"    ####################################    ####################",
"    ####################################    ####################"};
