/* XPM */
static char * corner_wall_right_xpm[] = {
"64 64 5 1",
" 	c #222222",
".	c #AA8D7A",
"+	c #483B3A",
"@	c #D3BFA9",
"#	c #775C55",
"                        ................                        ",
"                        ................                        ",
"                        ................                        ",
"                        ................                        ",
"........    ............    ........    ........................",
"........    ............    ........    ........................",
"........    ............    ........    ........................",
"........    ............    ........    ........................",
"........    ................++++++++............................",
"........    ................++++++++............................",
"........    ................++++++++............................",
"........    ................++++++++............................",
"........    ................++++++++............................",
"........    ................++++++++............................",
"........    ................++++++++............................",
"........    ................++++++++............................",
"@@@@@@@@    @@@@@@@@@@@@    ........    @@@@@@@@@@@@@@@@@@@@@@@@",
"@@@@@@@@    @@@@@@@@@@@@    ........    @@@@@@@@@@@@@@@@@@@@@@@@",
"@@@@@@@@    @@@@@@@@@@@@    ........    @@@@@@@@@@@@@@@@@@@@@@@@",
"@@@@@@@@    @@@@@@@@@@@@    ........    @@@@@@@@@@@@@@@@@@@@@@@@",
"########    ########    ................    ####################",
"########    ########    ................    ####################",
"########    ########    ................    ####################",
"########    ########    ................    ####################",
"++++++++    ++++++++    ................    ++++++++++++++++++++",
"++++++++    ++++++++    ................    ++++++++++++++++++++",
"++++++++    ++++++++    ................    ++++++++++++++++++++",
"++++++++    ++++++++    ................    ++++++++++++++++++++",
"++++++++    ++++++++    ................    ++++++++++++++++++++",
"++++++++    ++++++++    ................    ++++++++++++++++++++",
"++++++++    ++++++++    ................    ++++++++++++++++++++",
"++++++++    ++++++++    ................    ++++++++++++++++++++",
"                        ................                        ",
"                        ................                        ",
"                        ................                        ",
"                        ................                        ",
"####################    ................                        ",
"####################    ................                        ",
"####################    ................                        ",
"####################    ................                        ",
"++++++++++++++++++++    @@@@@@@@@@@@@@@@                        ",
"++++++++++++++++++++    @@@@@@@@@@@@@@@@                        ",
"++++++++++++++++++++    @@@@@@@@@@@@@@@@                        ",
"++++++++++++++++++++    @@@@@@@@@@@@@@@@                        ",
"++++++++++++++++++++                                            ",
"++++++++++++++++++++                                            ",
"++++++++++++++++++++                                            ",
"++++++++++++++++++++                                            ",
"                        ................                        ",
"                        ................                        ",
"                        ................                        ",
"                        ................                        ",
"####################    ................                        ",
"####################    ................                        ",
"####################    ................                        ",
"####################    ................                        ",
"++++++++++++++++++++    ................                        ",
"++++++++++++++++++++    ................                        ",
"++++++++++++++++++++    ................                        ",
"++++++++++++++++++++    ................                        ",
"++++++++++++++++++++    ................                        ",
"++++++++++++++++++++    ................                        ",
"++++++++++++++++++++    ................                        ",
"++++++++++++++++++++    ................                        "};
