/* XPM */
static char *top_wall_left[] = {
/* columns rows colors chars-per-pixel */
"64 64 5 1 ",
"  c #222222",
". c #483B3A",
"X c #775C55",
"o c #AA8D7A",
"O c #D3BFA9",
/* pixels */
"                                                                ",
"                                                                ",
"                                                                ",
"                                                                ",
"    oooooooooooooooooooooooooooooooo....    oooooooooooooooooooo",
"    oooooooooooooooooooooooooooooooo....    oooooooooooooooooooo",
"    oooooooooooooooooooooooooooooooo....    oooooooooooooooooooo",
"    oooooooooooooooooooooooooooooooo....    oooooooooooooooooooo",
"    oooooooooooooooooooooooooooooooooooo    oooooooooooooooooooo",
"    oooooooooooooooooooooooooooooooooooo    oooooooooooooooooooo",
"    oooooooooooooooooooooooooooooooooooo    oooooooooooooooooooo",
"    oooooooooooooooooooooooooooooooooooo    oooooooooooooooooooo",
"    ooooooooooooooooOOOOOOOOOOOOOOOOOOOO    OOOOOOOOOOOOOOOOOOOO",
"    ooooooooooooooooOOOOOOOOOOOOOOOOOOOO    OOOOOOOOOOOOOOOOOOOO",
"    ooooooooooooooooOOOOOOOOOOOOOOOOOOOO    OOOOOOOOOOOOOOOOOOOO",
"    ooooooooooooooooOOOOOOOOOOOOOOOOOOOO    OOOOOOOOOOOOOOOOOOOO",
"    oooooooooooo    XXXXXXXXXXXXXXXXXXXX    XXXXXXXXXXXXXXXXXXXX",
"    oooooooooooo    XXXXXXXXXXXXXXXXXXXX    XXXXXXXXXXXXXXXXXXXX",
"    oooooooooooo    XXXXXXXXXXXXXXXXXXXX    XXXXXXXXXXXXXXXXXXXX",
"    oooooooooooo    XXXXXXXXXXXXXXXXXXXX    XXXXXXXXXXXXXXXXXXXX",
"    oooooooooooo    ....................    ....................",
"    oooooooooooo    ....................    ....................",
"    oooooooooooo    ....................    ....................",
"    oooooooooooo    ....................    ....................",
"    OOOOOOOOOOOO    ........    ........    ....    ............",
"    OOOOOOOOOOOO    ........    ........    ....    ............",
"    OOOOOOOOOOOO    ........    ........    ....    ............",
"    OOOOOOOOOOOO    ........    ........    ....    ............",
"                                                                ",
"                                                                ",
"                                                                ",
"                                                                ",
"    oooooooooooo    XXXXXXXXXXXXXXXXXXXXXXXXXXXX    XXXXXXXXXXXX",
"    oooooooooooo    XXXXXXXXXXXXXXXXXXXXXXXXXXXX    XXXXXXXXXXXX",
"    oooooooooooo    XXXXXXXXXXXXXXXXXXXXXXXXXXXX    XXXXXXXXXXXX",
"    oooooooooooo    XXXXXXXXXXXXXXXXXXXXXXXXXXXX    XXXXXXXXXXXX",
"    oooooooooooo    ............................    ............",
"    oooooooooooo    ............................    ............",
"    oooooooooooo    ............................    ............",
"    oooooooooooo    ............................    ............",
"    oooooooooooo    ............................        ........",
"    oooooooooooo    ............................        ........",
"    oooooooooooo    ............................        ........",
"    oooooooooooo    ............................        ........",
"    oooooooooooo                                                ",
"    oooooooooooo                                                ",
"    oooooooooooo                                                ",
"    oooooooooooo                                                ",
"    oooooooooooo    XXXXXXXXXXXXXXXX        XXXXXXXXXXXXXXXXXXXX",
"    oooooooooooo    XXXXXXXXXXXXXXXX        XXXXXXXXXXXXXXXXXXXX",
"    oooooooooooo    XXXXXXXXXXXXXXXX        XXXXXXXXXXXXXXXXXXXX",
"    oooooooooooo    XXXXXXXXXXXXXXXX        XXXXXXXXXXXXXXXXXXXX",
"    OOOOOOOOOOOO        ............    ........................",
"    OOOOOOOOOOOO        ............    ........................",
"    OOOOOOOOOOOO        ............    ........................",
"    OOOOOOOOOOOO        ............    ........................",
"                    ................    ........................",
"                    ................    ........................",
"                    ................    ........................",
"                    ................    ........................",
"    oooooooooooo                                                ",
"    oooooooooooo                                                ",
"    oooooooooooo                                                ",
"    oooooooooooo                                                "
};
