/* XPM */
static char *top_wall[] = {
/* columns rows colors chars-per-pixel */
"64 64 5 1 ",
"  c #222222",
". c #483B3A",
"X c #775C55",
"o c #AA8D7A",
"O c #D3BFA9",
/* pixels */
"                                                                ",
"                                                                ",
"                                                                ",
"                                                                ",
"oooo....    oooooooooooooooooooooooooooooooooooooooo    ....oooo",
"oooo....    oooooooooooooooooooooooooooooooooooooooo    ....oooo",
"oooo....    oooooooooooooooooooooooooooooooooooooooo    ....oooo",
"oooo....    oooooooooooooooooooooooooooooooooooooooo    ....oooo",
"oooooooo    oooooooooooooooooooooooooooooooooooooooo    oooooooo",
"oooooooo    oooooooooooooooooooooooooooooooooooooooo    oooooooo",
"oooooooo    oooooooooooooooooooooooooooooooooooooooo    oooooooo",
"oooooooo    oooooooooooooooooooooooooooooooooooooooo    oooooooo",
"OOOOOOOO    OOOOOOOOOOOOOOOOOOOOOOOOOOOOOOOOOOOOOOOO    OOOOOOOO",
"OOOOOOOO    OOOOOOOOOOOOOOOOOOOOOOOOOOOOOOOOOOOOOOOO    OOOOOOOO",
"OOOOOOOO    OOOOOOOOOOOOOOOOOOOOOOOOOOOOOOOOOOOOOOOO    OOOOOOOO",
"OOOOOOOO    OOOOOOOOOOOOOOOOOOOOOOOOOOOOOOOOOOOOOOOO    OOOOOOOO",
"XXXXXXXX    XXXXXXXXXXXXXXXXXXXXXXXXXXXXXXXXXXXXXXXX    XXXXXXXX",
"XXXXXXXX    XXXXXXXXXXXXXXXXXXXXXXXXXXXXXXXXXXXXXXXX    XXXXXXXX",
"XXXXXXXX    XXXXXXXXXXXXXXXXXXXXXXXXXXXXXXXXXXXXXXXX    XXXXXXXX",
"XXXXXXXX    XXXXXXXXXXXXXXXXXXXXXXXXXXXXXXXXXXXXXXXX    XXXXXXXX",
"........    ........................................    ........",
"........    ........................................    ........",
"........    ........................................    ........",
"........    ........................................    ........",
"........    ....    ............................        ........",
"........    ....    ............................        ........",
"........    ....    ............................        ........",
"........    ....    ............................        ........",
"                                                                ",
"                                                                ",
"                                                                ",
"                                                                ",
"XXXXXXXXXXXXXXXX    XXXXXXXXXXXXXXXXXXXXXXXX    XXXXXXXXXXXXXXXX",
"XXXXXXXXXXXXXXXX    XXXXXXXXXXXXXXXXXXXXXXXX    XXXXXXXXXXXXXXXX",
"XXXXXXXXXXXXXXXX    XXXXXXXXXXXXXXXXXXXXXXXX    XXXXXXXXXXXXXXXX",
"XXXXXXXXXXXXXXXX    XXXXXXXXXXXXXXXXXXXXXXXX    XXXXXXXXXXXXXXXX",
"................    ........................    ................",
"................    ........................    ................",
"................    ........................    ................",
"................    ........................    ................",
"................        ....................        ............",
"................        ....................        ............",
"................        ....................        ............",
"................        ....................        ............",
"                                                                ",
"                                                                ",
"                                                                ",
"                                                                ",
"XXXX        XXXXXXXXXXXXXXXXXXXXXXXX        XXXXXXXXXXXXXXXX    ",
"XXXX        XXXXXXXXXXXXXXXXXXXXXXXX        XXXXXXXXXXXXXXXX    ",
"XXXX        XXXXXXXXXXXXXXXXXXXXXXXX        XXXXXXXXXXXXXXXX    ",
"XXXX        XXXXXXXXXXXXXXXXXXXXXXXX        XXXXXXXXXXXXXXXX    ",
"....    ............................    ....................    ",
"....    ............................    ....................    ",
"....    ............................    ....................    ",
"....    ............................    ....................    ",
"....    ............................    ....................    ",
"....    ............................    ....................    ",
"....    ............................    ....................    ",
"....    ............................    ....................    ",
"                                                                ",
"                                                                ",
"                                                                ",
"                                                                "
};
