/* XPM */
static char *_[] = {
/* columns rows colors chars-per-pixel */
"64 64 2 1 ",
"  c #1195E9",
". c None",
/* pixels */
"................................................................",
"................................................................",
"................................................................",
"................................................................",
"................................................................",
".....                                           ................",
".....                                           ................",
".....                                           ................",
".....                                           ................",
".....                                           ................",
".....                                           ................",
".....                                           ................",
".....                                           ................",
".....                                           ................",
".....                                           ................",
".....                                           ................",
"................................................          ......",
"................................................          ......",
"................................................          ......",
"................................................          ......",
"................................................          ......",
"................................................          ......",
"................................................          ......",
"................................................          ......",
"................................................          ......",
"................................................          ......",
"..........................                      ................",
"..........................                      ................",
"..........................                      ................",
"..........................                      ................",
"..........................                      ................",
"..........................                      ................",
"..........................                      ................",
"..........................                      ................",
"..........................                      ................",
"..........................                      ................",
"..........................                      ................",
"................          ......................................",
"................          ......................................",
"................          ......................................",
"................          ......................................",
"................          ......................................",
"................          ......................................",
"................          ......................................",
"................          ......................................",
"................          ......................................",
"................          ......................................",
"................          ......................................",
".....                                                     ......",
".....                                                     ......",
".....                                                     ......",
".....                                                     ......",
".....                                                     ......",
".....                                                     ......",
".....                                                     ......",
".....                                                     ......",
".....                                                     ......",
".....                                                     ......",
"................................................................",
"................................................................",
"................................................................",
"................................................................",
"................................................................",
"................................................................"
};
