/* XPM */
static char * player_idle_1_5_xpm[] = {
"64 64 8 1",
" 	c None",
".	c #0E071B",
"+	c #5AC54F",
"@	c #33984B",
"#	c #C7CFDD",
"$	c #92A1B9",
"%	c #657392",
"&	c #1E6F50",
"                                                                ",
"                                                                ",
"                                                                ",
"                                                                ",
"                ....................................            ",
"                ....................................            ",
"                ....................................            ",
"                ....................................            ",
"            ....++++++++++++++++++++++++++++++++++++....        ",
"            ....++++++++++++++++++++++++++++++++++++....        ",
"            ....++++++++++++++++++++++++++++++++++++....        ",
"            ....++++++++++++++++++++++++++++++++++++....        ",
"        ....@@@@@@@@@@@@@@@@@@@@@@@@@@@@@@@@++++++++....        ",
"        ....@@@@@@@@@@@@@@@@@@@@@@@@@@@@@@@@++++++++....        ",
"        ....@@@@@@@@@@@@@@@@@@@@@@@@@@@@@@@@++++++++....        ",
"        ....@@@@@@@@@@@@@@@@@@@@@@@@@@@@@@@@++++++++....        ",
"        ....@@@@@@@@####$$$$################++++++++....        ",
"        ....@@@@@@@@####$$$$################++++++++....        ",
"        ....@@@@@@@@####$$$$################++++++++....        ",
"        ....@@@@@@@@####$$$$################++++++++....        ",
"        ....@@@@$$$$$$$$$$$$$$$$$$$$$$$$$$$$####....            ",
"        ....@@@@$$$$$$$$$$$$$$$$$$$$$$$$$$$$####....            ",
"        ....@@@@$$$$$$$$$$$$$$$$$$$$$$$$$$$$####....            ",
"        ....@@@@$$$$$$$$$$$$$$$$$$$$$$$$$$$$####....            ",
"        ....@@@@$$$$$$$$$$$$%%%%%%%%................            ",
"        ....@@@@$$$$$$$$$$$$%%%%%%%%................            ",
"        ....@@@@$$$$$$$$$$$$%%%%%%%%................            ",
"        ....@@@@$$$$$$$$$$$$%%%%%%%%................            ",
"            ....$$$$$$$$%%%%%%%%%%%%................            ",
"            ....$$$$$$$$%%%%%%%%%%%%................            ",
"            ....$$$$$$$$%%%%%%%%%%%%................            ",
"            ....$$$$$$$$%%%%%%%%%%%%................            ",
"            ....%%%%$$$$$$$$%%%%%%%%$$$$$$$$........            ",
"            ....%%%%$$$$$$$$%%%%%%%%$$$$$$$$........            ",
"            ....%%%%$$$$$$$$%%%%%%%%$$$$$$$$........            ",
"            ....%%%%$$$$$$$$%%%%%%%%$$$$$$$$........            ",
"                ....%%%%$$$$$$$$$$$$$$$$................        ",
"                ....%%%%$$$$$$$$$$$$$$$$................        ",
"                ....%%%%$$$$$$$$$$$$$$$$................        ",
"                ....%%%%$$$$$$$$$$$$$$$$................        ",
"                    ........................########....        ",
"                    ........................########....        ",
"                    ........................########....        ",
"                    ........................########....        ",
"                        ....$$$$$$$$&&&&....####++++....        ",
"                        ....$$$$$$$$&&&&....####++++....        ",
"                        ....$$$$$$$$&&&&....####++++....        ",
"                        ....$$$$$$$$&&&&....####++++....        ",
"                        ........$$$$@@@@....$$$$@@@@....        ",
"                        ........$$$$@@@@....$$$$@@@@....        ",
"                        ........$$$$@@@@....$$$$@@@@....        ",
"                        ........$$$$@@@@....$$$$@@@@....        ",
"                        ....%%%%............$$$$@@@@....        ",
"                        ....%%%%............$$$$@@@@....        ",
"                        ....%%%%............$$$$@@@@....        ",
"                        ....%%%%............$$$$@@@@....        ",
"                        ....$$$$$$$$$$$$........$$$$....        ",
"                        ....$$$$$$$$$$$$........$$$$....        ",
"                        ....$$$$$$$$$$$$........$$$$....        ",
"                        ....$$$$$$$$$$$$........$$$$....        ",
"                        ....%%%%%%%%................            ",
"                        ....%%%%%%%%................            ",
"                        ....%%%%%%%%................            ",
"                        ....%%%%%%%%................            "};
