/* XPM */
static char * player_idle_1_8_xpm[] = {
"64 64 10 1",
" 	c #222222",
".	c #483B3A",
"+	c #0E071B",
"@	c #5AC54F",
"#	c #775C55",
"$	c #33984B",
"%	c #C7CFDD",
"&	c #92A1B9",
"*	c #657392",
"=	c #1E6F50",
"            ....++++++++++++++++++++++++++++++++++++            ",
"            ....++++++++++++++++++++++++++++++++++++            ",
"            ....++++++++++++++++++++++++++++++++++++            ",
"            ....++++++++++++++++++++++++++++++++++++            ",
"    ........++++@@@@@@@@@@@@@@@@@@@@@@@@@@@@@@@@@@@@++++....####",
"    ........++++@@@@@@@@@@@@@@@@@@@@@@@@@@@@@@@@@@@@++++....####",
"    ........++++@@@@@@@@@@@@@@@@@@@@@@@@@@@@@@@@@@@@++++....####",
"    ........++++@@@@@@@@@@@@@@@@@@@@@@@@@@@@@@@@@@@@++++....####",
"........++++$$$$$$$$$$$$$$$$$$$$$$$$$$$$$$$$@@@@@@@@++++....####",
"........++++$$$$$$$$$$$$$$$$$$$$$$$$$$$$$$$$@@@@@@@@++++....####",
"........++++$$$$$$$$$$$$$$$$$$$$$$$$$$$$$$$$@@@@@@@@++++....####",
"........++++$$$$$$$$$$$$$$$$$$$$$$$$$$$$$$$$@@@@@@@@++++....####",
"........++++$$$$$$$$%%%%&&&&%%%%%%%%%%%%%%%%@@@@@@@@++++....####",
"........++++$$$$$$$$%%%%&&&&%%%%%%%%%%%%%%%%@@@@@@@@++++....####",
"........++++$$$$$$$$%%%%&&&&%%%%%%%%%%%%%%%%@@@@@@@@++++....####",
"........++++$$$$$$$$%%%%&&&&%%%%%%%%%%%%%%%%@@@@@@@@++++....####",
"    ....++++$$$$&&&&&&&&&&&&&&&&&&&&&&&&&&&&%%%%++++........####",
"    ....++++$$$$&&&&&&&&&&&&&&&&&&&&&&&&&&&&%%%%++++........####",
"    ....++++$$$$&&&&&&&&&&&&&&&&&&&&&&&&&&&&%%%%++++........####",
"    ....++++$$$$&&&&&&&&&&&&&&&&&&&&&&&&&&&&%%%%++++........####",
"........++++$$$$&&&&&&&&&&&&********++++++++++++++++........####",
"........++++$$$$&&&&&&&&&&&&********++++++++++++++++........####",
"........++++$$$$&&&&&&&&&&&&********++++++++++++++++........####",
"........++++$$$$&&&&&&&&&&&&********++++++++++++++++........####",
"    ........++++&&&&&&&&************++++++++++++++++............",
"    ........++++&&&&&&&&************++++++++++++++++............",
"    ........++++&&&&&&&&************++++++++++++++++............",
"    ........++++&&&&&&&&************++++++++++++++++............",
"    ........++++****&&&&&&&&********&&&&&&&&++++++++........####",
"    ........++++****&&&&&&&&********&&&&&&&&++++++++........####",
"    ........++++****&&&&&&&&********&&&&&&&&++++++++........####",
"    ........++++****&&&&&&&&********&&&&&&&&++++++++........####",
"    ............++++****&&&&&&&&&&&&&&&&++++++++++++++++........",
"    ............++++****&&&&&&&&&&&&&&&&++++++++++++++++........",
"    ............++++****&&&&&&&&&&&&&&&&++++++++++++++++........",
"    ............++++****&&&&&&&&&&&&&&&&++++++++++++++++........",
"....................++++++++++++++++++++++++%%%%%%%%++++....####",
"....................++++++++++++++++++++++++%%%%%%%%++++....####",
"....................++++++++++++++++++++++++%%%%%%%%++++....####",
"....................++++++++++++++++++++++++%%%%%%%%++++....####",
"........................++++&&&&&&&&====++++%%%%@@@@++++....####",
"........................++++&&&&&&&&====++++%%%%@@@@++++....####",
"........................++++&&&&&&&&====++++%%%%@@@@++++....####",
"........................++++&&&&&&&&====++++%%%%@@@@++++....####",
"    ....................++++++++&&&&$$$$++++&&&&$$$$++++........",
"    ....................++++++++&&&&$$$$++++&&&&$$$$++++........",
"    ....................++++++++&&&&$$$$++++&&&&$$$$++++........",
"    ....................++++++++&&&&$$$$++++&&&&$$$$++++........",
"    ....................++++****++++++++++++&&&&$$$$++++........",
"    ....................++++****++++++++++++&&&&$$$$++++........",
"    ....................++++****++++++++++++&&&&$$$$++++........",
"    ....................++++****++++++++++++&&&&$$$$++++........",
"    ....................++++&&&&&&&&&&&&++++++++&&&&++++....####",
"    ....................++++&&&&&&&&&&&&++++++++&&&&++++....####",
"    ....................++++&&&&&&&&&&&&++++++++&&&&++++....####",
"    ....................++++&&&&&&&&&&&&++++++++&&&&++++....####",
"    ....................++++********++++++++++++++++........####",
"    ....................++++********++++++++++++++++........####",
"    ....................++++********++++++++++++++++........####",
"    ....................++++********++++++++++++++++........####",
"############........####++++&&&&&&&&++++++++....################",
"############........####++++&&&&&&&&++++++++....################",
"############........####++++&&&&&&&&++++++++....################",
"############........####++++&&&&&&&&++++++++....################"};
