/* XPM */
static char * player_idle_3_5_xpm[] = {
"64 64 7 1",
" 	c None",
".	c #0E071B",
"+	c #5AC54F",
"@	c #33984B",
"#	c #C7CFDD",
"$	c #92A1B9",
"%	c #657392",
"                                                                ",
"                                                                ",
"                                                                ",
"                                                                ",
"            ....................................                ",
"            ....................................                ",
"            ....................................                ",
"            ....................................                ",
"        ....++++++++++++++++++++++++++++++++++++....            ",
"        ....++++++++++++++++++++++++++++++++++++....            ",
"        ....++++++++++++++++++++++++++++++++++++....            ",
"        ....++++++++++++++++++++++++++++++++++++....            ",
"        ....++++++++@@@@@@@@@@@@@@@@@@@@@@@@@@@@@@@@....        ",
"        ....++++++++@@@@@@@@@@@@@@@@@@@@@@@@@@@@@@@@....        ",
"        ....++++++++@@@@@@@@@@@@@@@@@@@@@@@@@@@@@@@@....        ",
"        ....++++++++@@@@@@@@@@@@@@@@@@@@@@@@@@@@@@@@....        ",
"        ....++++++++################$$$$####@@@@@@@@....        ",
"        ....++++++++################$$$$####@@@@@@@@....        ",
"        ....++++++++################$$$$####@@@@@@@@....        ",
"        ....++++++++################$$$$####@@@@@@@@....        ",
"            ....####$$$$$$$$$$$$$$$$$$$$$$$$$$$$@@@@....        ",
"            ....####$$$$$$$$$$$$$$$$$$$$$$$$$$$$@@@@....        ",
"            ....####$$$$$$$$$$$$$$$$$$$$$$$$$$$$@@@@....        ",
"            ....####$$$$$$$$$$$$$$$$$$$$$$$$$$$$@@@@....        ",
"            ................%%%%%%%%$$$$$$$$$$$$@@@@....        ",
"            ................%%%%%%%%$$$$$$$$$$$$@@@@....        ",
"            ................%%%%%%%%$$$$$$$$$$$$@@@@....        ",
"            ................%%%%%%%%$$$$$$$$$$$$@@@@....        ",
"            ................%%%%%%%%%%%%$$$$$$$$....            ",
"            ................%%%%%%%%%%%%$$$$$$$$....            ",
"            ................%%%%%%%%%%%%$$$$$$$$....            ",
"            ................%%%%%%%%%%%%$$$$$$$$....            ",
"            ........$$$$$$$$%%%%%%%%$$$$$$$$%%%%....            ",
"            ........$$$$$$$$%%%%%%%%$$$$$$$$%%%%....            ",
"            ........$$$$$$$$%%%%%%%%$$$$$$$$%%%%....            ",
"            ........$$$$$$$$%%%%%%%%$$$$$$$$%%%%....            ",
"        ............%%%%$$$$$$$$$$$$$$$$%%%%....                ",
"        ............%%%%$$$$$$$$$$$$$$$$%%%%....                ",
"        ............%%%%$$$$$$$$$$$$$$$$%%%%....                ",
"        ............%%%%$$$$$$$$$$$$$$$$%%%%....                ",
"        ....%%%%............................                    ",
"        ....%%%%............................                    ",
"        ....%%%%............................                    ",
"        ....%%%%............................                    ",
"        ....@@@@........%%%%$$$$########....                    ",
"        ....@@@@........%%%%$$$$########....                    ",
"        ....@@@@........%%%%$$$$########....                    ",
"        ....@@@@........%%%%$$$$########....                    ",
"        ....@@@@........$$$$....@@@@@@@@....                    ",
"        ....@@@@........$$$$....@@@@@@@@....                    ",
"        ....@@@@........$$$$....@@@@@@@@....                    ",
"        ....@@@@........$$$$....@@@@@@@@....                    ",
"        ....@@@@........%%%%....%%%%$$$$....                    ",
"        ....@@@@........%%%%....%%%%$$$$....                    ",
"        ....@@@@........%%%%....%%%%$$$$....                    ",
"        ....@@@@........%%%%....%%%%$$$$....                    ",
"        ....%%%%........$$$$$$$$........                        ",
"        ....%%%%........$$$$$$$$........                        ",
"        ....%%%%........$$$$$$$$........                        ",
"        ....%%%%........$$$$$$$$........                        ",
"            ................%%%%%%%%....                        ",
"            ................%%%%%%%%....                        ",
"            ................%%%%%%%%....                        ",
"            ................%%%%%%%%....                        "};
