/* XPM */
static char * player_idle_3_3_xpm[] = {
"64 64 9 1",
" 	c #222222",
".	c #483B3A",
"+	c #0E071B",
"@	c #775C55",
"#	c #5AC54F",
"$	c #33984B",
"%	c #C7CFDD",
"&	c #92A1B9",
"*	c #657392",
"            ....                ............    ....            ",
"            ....                ............    ....            ",
"            ....                ............    ....            ",
"            ....                ............    ....            ",
"    ........++++++++++++++++++++++++++++++++++++............@@@@",
"    ........++++++++++++++++++++++++++++++++++++............@@@@",
"    ........++++++++++++++++++++++++++++++++++++............@@@@",
"    ........++++++++++++++++++++++++++++++++++++............@@@@",
"........++++####################################++++........@@@@",
"........++++####################################++++........@@@@",
"........++++####################################++++........@@@@",
"........++++####################################++++........@@@@",
"........++++########$$$$$$$$$$$$$$$$$$$$$$$$$$$$$$$$++++....@@@@",
"........++++########$$$$$$$$$$$$$$$$$$$$$$$$$$$$$$$$++++....@@@@",
"........++++########$$$$$$$$$$$$$$$$$$$$$$$$$$$$$$$$++++....@@@@",
"........++++########$$$$$$$$$$$$$$$$$$$$$$$$$$$$$$$$++++....@@@@",
"    ....++++########%%%%%%%%%%%%%%%%&&&&%%%%$$$$$$$$++++....@@@@",
"    ....++++########%%%%%%%%%%%%%%%%&&&&%%%%$$$$$$$$++++....@@@@",
"    ....++++########%%%%%%%%%%%%%%%%&&&&%%%%$$$$$$$$++++....@@@@",
"    ....++++########%%%%%%%%%%%%%%%%&&&&%%%%$$$$$$$$++++....@@@@",
"............++++%%%%&&&&&&&&&&&&&&&&&&&&&&&&&&&&$$$$++++....@@@@",
"............++++%%%%&&&&&&&&&&&&&&&&&&&&&&&&&&&&$$$$++++....@@@@",
"............++++%%%%&&&&&&&&&&&&&&&&&&&&&&&&&&&&$$$$++++....@@@@",
"............++++%%%%&&&&&&&&&&&&&&&&&&&&&&&&&&&&$$$$++++....@@@@",
"    ........++++++++++++++++********&&&&&&&&&&&&$$$$++++........",
"    ........++++++++++++++++********&&&&&&&&&&&&$$$$++++........",
"    ........++++++++++++++++********&&&&&&&&&&&&$$$$++++........",
"    ........++++++++++++++++********&&&&&&&&&&&&$$$$++++........",
"    ........++++++++++++++++************&&&&&&&&++++........@@@@",
"    ........++++++++++++++++************&&&&&&&&++++........@@@@",
"    ........++++++++++++++++************&&&&&&&&++++........@@@@",
"    ........++++++++++++++++************&&&&&&&&++++........@@@@",
"    ........++++++++&&&&&&&&********&&&&&&&&****++++............",
"    ........++++++++&&&&&&&&********&&&&&&&&****++++............",
"    ........++++++++&&&&&&&&********&&&&&&&&****++++............",
"    ........++++++++&&&&&&&&********&&&&&&&&****++++............",
"........++++++++++++****&&&&&&&&&&&&&&&&****++++............@@@@",
"........++++++++++++****&&&&&&&&&&&&&&&&****++++............@@@@",
"........++++++++++++****&&&&&&&&&&&&&&&&****++++............@@@@",
"........++++++++++++****&&&&&&&&&&&&&&&&****++++............@@@@",
"........++++****++++++++++++++++++++++++++++................@@@@",
"........++++****++++++++++++++++++++++++++++................@@@@",
"........++++****++++++++++++++++++++++++++++................@@@@",
"........++++****++++++++++++++++++++++++++++................@@@@",
"    ....++++$$$$++++++++****&&&&%%%%%%%%++++....................",
"    ....++++$$$$++++++++****&&&&%%%%%%%%++++....................",
"    ....++++$$$$++++++++****&&&&%%%%%%%%++++....................",
"    ....++++$$$$++++++++****&&&&%%%%%%%%++++....................",
"    ....++++$$$$++++++++&&&&++++$$$$$$$$++++....................",
"    ....++++$$$$++++++++&&&&++++$$$$$$$$++++....................",
"    ....++++$$$$++++++++&&&&++++$$$$$$$$++++....................",
"    ....++++$$$$++++++++&&&&++++$$$$$$$$++++....................",
"    ....++++$$$$++++++++****++++****&&&&++++................@@@@",
"    ....++++$$$$++++++++****++++****&&&&++++................@@@@",
"    ....++++$$$$++++++++****++++****&&&&++++................@@@@",
"    ....++++$$$$++++++++****++++****&&&&++++................@@@@",
"    ....++++****++++++++&&&&&&&&++++++++....................@@@@",
"    ....++++****++++++++&&&&&&&&++++++++....................@@@@",
"    ....++++****++++++++&&&&&&&&++++++++....................@@@@",
"    ....++++****++++++++&&&&&&&&++++++++....................@@@@",
"@@@@@@@@@@@@++++++++++++++++********++++@@@@....@@@@@@@@@@@@@@@@",
"@@@@@@@@@@@@++++++++++++++++********++++@@@@....@@@@@@@@@@@@@@@@",
"@@@@@@@@@@@@++++++++++++++++********++++@@@@....@@@@@@@@@@@@@@@@",
"@@@@@@@@@@@@++++++++++++++++********++++@@@@....@@@@@@@@@@@@@@@@"};
