/* XPM */
static char * player_idle_2_5_xpm[] = {
"64 64 10 1",
" 	c None",
".	c #0E071B",
"+	c #5AC54F",
"@	c #C7CFDD",
"#	c #92A1B9",
"$	c #33984B",
"%	c #657392",
"&	c #424C6E",
"*	c #3A4466",
"=	c #1E6F50",
"                                                                ",
"                                                                ",
"                                                                ",
"                                                                ",
"                        ................                        ",
"                        ................                        ",
"                        ................                        ",
"                        ................                        ",
"                ............++++++++............                ",
"                ............++++++++............                ",
"                ............++++++++............                ",
"                ............++++++++............                ",
"            ....@@@@@@@@....++++++++....@@@@@@@@....            ",
"            ....@@@@@@@@....++++++++....@@@@@@@@....            ",
"            ....@@@@@@@@....++++++++....@@@@@@@@....            ",
"            ....@@@@@@@@....++++++++....@@@@@@@@....            ",
"            ....@@@@####....$$$$$$$$....####@@@@....            ",
"            ....@@@@####....$$$$$$$$....####@@@@....            ",
"            ....@@@@####....$$$$$$$$....####@@@@....            ",
"            ....@@@@####....$$$$$$$$....####@@@@....            ",
"        ....@@@@########....$$$$$$$$....########@@@@....        ",
"        ....@@@@########....$$$$$$$$....########@@@@....        ",
"        ....@@@@########....$$$$$$$$....########@@@@....        ",
"        ....@@@@########....$$$$$$$$....########@@@@....        ",
"        ....%%%%################################%%%%....        ",
"        ....%%%%################################%%%%....        ",
"        ....%%%%################################%%%%....        ",
"        ....%%%%################################%%%%....        ",
"        ....%%%%%%%%########################%%%%%%%%....        ",
"        ....%%%%%%%%########################%%%%%%%%....        ",
"        ....%%%%%%%%########################%%%%%%%%....        ",
"        ....%%%%%%%%########################%%%%%%%%....        ",
"            ....################################....            ",
"            ....################################....            ",
"            ....################################....            ",
"            ....################################....            ",
"            ........%%%%################%%%%....................",
"            ........%%%%################%%%%....................",
"            ........%%%%################%%%%....................",
"            ........%%%%################%%%%....................",
"        ....@@@@@@@@........................####....&&&&&&&&....",
"        ....@@@@@@@@........................####....&&&&&&&&....",
"        ....@@@@@@@@........................####....&&&&&&&&....",
"        ....@@@@@@@@........................####....&&&&&&&&....",
"    ....@@@@%%%%####%%%%####%%%%%%%%####%%%%%%%%%%%%....&&&&....",
"    ....@@@@%%%%####%%%%####%%%%%%%%####%%%%%%%%%%%%....&&&&....",
"    ....@@@@%%%%####%%%%####%%%%%%%%####%%%%%%%%%%%%....&&&&....",
"    ....@@@@%%%%####%%%%####%%%%%%%%####%%%%%%%%%%%%....&&&&....",
"    ....$$$$$$$$****%%%%################%%%%&&&&====....&&&&....",
"    ....$$$$$$$$****%%%%################%%%%&&&&====....&&&&....",
"    ....$$$$$$$$****%%%%################%%%%&&&&====....&&&&....",
"    ....$$$$$$$$****%%%%################%%%%&&&&====....&&&&....",
"    ....####%%%%....%%%%%%%%%%%%%%%%%%%%%%%%........&&&&&&&&....",
"    ....####%%%%....%%%%%%%%%%%%%%%%%%%%%%%%........&&&&&&&&....",
"    ....####%%%%....%%%%%%%%%%%%%%%%%%%%%%%%........&&&&&&&&....",
"    ....####%%%%....%%%%%%%%%%%%%%%%%%%%%%%%........&&&&&&&&....",
"        ............########################....&&&&&&&&....    ",
"        ............########################....&&&&&&&&....    ",
"        ............########################....&&&&&&&&....    ",
"        ............########################....&&&&&&&&....    ",
"                ....%%%%%%%%........%%%%%%%%............        ",
"                ....%%%%%%%%........%%%%%%%%............        ",
"                ....%%%%%%%%........%%%%%%%%............        ",
"                ....%%%%%%%%........%%%%%%%%............        "};
