/* XPM */
static char *empty_heart[] = {
/* columns rows colors chars-per-pixel */
"64 59 41 1 ",
"  c #2A2A3A",
". c #2F2D3A",
"X c #312E3A",
"o c #322E3A",
"O c #332F3A",
"+ c #34303A",
"@ c #36313A",
"# c #37313A",
"$ c #38323A",
"% c #39333A",
"& c #3A333A",
"* c #3C343A",
"= c #3F363A",
"- c #483B3A",
"; c #716D73",
": c #777378",
"> c #7B797F",
", c #868286",
"< c #8B878A",
"1 c #8C888A",
"2 c #8B898D",
"3 c #8E8A8D",
"4 c #939093",
"5 c #9C989A",
"6 c #A5A2A2",
"7 c #ACA8A8",
"8 c #B7B3B1",
"9 c #BCB8B6",
"0 c #C0BBB8",
"q c #C8C4C0",
"w c #CCC8C4",
"e c #DAD5CF",
"r c #DDD7D1",
"t c #DED9D3",
"y c #E2DDD6",
"u c #EBE6DE",
"i c #ECE7DF",
"p c #EDE7DF",
"a c #EEE8E0",
"s c #FDF7ED",
"d c None",
/* pixels */
"ddddddddddsssssssssssssssddddddddddddddsssssssssssssssdddddddddd",
"ddddddddddsssssssssssssssddddddddddddddsssssssssssssssdddddddddd",
"ddddddddddsssssssssssssssddddddddddddddsssssssssssssssdddddddddd",
"ddddddddddsssssssssssssssddddddddddddddsssssssssssssssdddddddddd",
"dddddddddduuuuuuuuuuuuuupddddddddddddddpuuuuuuuuuuuuuudddddddddd",
"dddddssssr              >sssssddddsssss>              rssssddddd",
"dddddssssr              >sssssddddsssss>              rssssddddd",
"dddddssssr              >sssssddddsssss>              rssssddddd",
"dddddssssr              >sssssddddsssss>              rssssddddd",
"dddddeeee0....... ....X.;eeeetddddteeee;........X....X9eeeeddddd",
"ssssp    .--------------*    2ssss2    *--------------.    pssss",
"ssssp    .--------------*    2ssss2    *--------------.    pssss",
"ssssp    .--------------*    2ssss2    *--------------.    pssss",
"ssssp    .--------------*    2ssss2    %--------------.    pssss",
"ssssp    .---------------XXXX:qqqq:XXXX---------------.    pssss",
"ssssp    .-------------------%    %-------------------.    pssss",
"ssssp    .-------------------%    %-------------------.    assss",
"ssssp    .-------------------%    *-------------------.    ussss",
"ssssp    .-------------------*    %-------------------.    assss",
"ssssp    .-------------------*++++*-------------------.    assss",
"ssssp    .--------------------------------------------.    ussss",
"ssssp    .--------------------------------------------.    assss",
"ssssp    .--------------------------------------------.    assss",
"ssssp    .--------------------------------------------.    ussss",
"ssssp    .--------------------------------------------.    ussss",
"ssssp    .--------------------------------------------.    assss",
"ssssp    .--------------------------------------------.    ussss",
"ssssp    .--------------------------------------------.    assss",
"ssssp    .--------------------------------------------.    assss",
"ssssa4444,%%%%*----------------------------------*%%%%,4444assss",
"dddddssssr    X----------------------------------X    rssssddddd",
"dddddssssr    X----------------------------------X    rssssddddd",
"dddddssssr    X----------------------------------X    tssssddddd",
"dddddssssr    X----------------------------------X    rssssddddd",
"dddddddddy66661%+%%*------------------------*%+%+16666yddddddddd",
"ddddddddddssssw    +------------------------+    wssssdddddddddd",
"ddddddddddssssw    O------------------------O    wssssdddddddddd",
"ddddddddddssssw    O------------------------O    wssssdddddddddd",
"ddddddddddssssw    O------------------------O    wssssdddddddddd",
"ddddddddddddddd88882++++*--------------*++++28888ddddddddddddddd",
"dddddddddddddddssss9    +--------------%    9ssssddddddddddddddd",
"dddddddddddddddssss9    +--------------+    9ssssddddddddddddddd",
"dddddddddddddddssss9    +--------------+    9ssssddddddddddddddd",
"dddddddddddddddssss9    %--------------%    9ssssddddddddddddddd",
"ddddddddddddddddddddqqqq2OXXX*----*XXXX2qqqqdddddddddddddddddddd",
"ddddddddddddddddddddssss7    %----%    7ssssdddddddddddddddddddd",
"ddddddddddddddddddddssss7    %----%    7ssssdddddddddddddddddddd",
"ddddddddddddddddddddssss7    +----+    7ssssdddddddddddddddddddd",
"ddddddddddddddddddddssss7    +----%    7ssssdddddddddddddddddddd",
"dddddddddddddddddddddddddeeee<X...<eeeeddddddddddddddddddddddddd",
"dddddddddddddddddddddddddssss5    5ssssddddddddddddddddddddddddd",
"dddddddddddddddddddddddddssss5    5ssssddddddddddddddddddddddddd",
"dddddddddddddddddddddddddssss5    5ssssddddddddddddddddddddddddd",
"dddddddddddddddddddddddddssss5    5ssssddddddddddddddddddddddddd",
"dddddddddddddddddddddddddddddppuuppddddddddddddddddddddddddddddd",
"ddddddddddddddddddddddddddddddssssdddddddddddddddddddddddddddddd",
"ddddddddddddddddddddddddddddddssssdddddddddddddddddddddddddddddd",
"ddddddddddddddddddddddddddddddssssdddddddddddddddddddddddddddddd",
"ddddddddddddddddddddddddddddddssssdddddddddddddddddddddddddddddd"
};
