/* XPM */
static char *half_heart[] = {
/* columns rows colors chars-per-pixel */
"64 59 83 1 ",
"  c #2A2A3A",
". c #2F2D3A",
"X c #312E3A",
"o c #322E3A",
"O c #332F3A",
"+ c #34303A",
"@ c #36313A",
"# c #37313A",
"$ c #38323A",
"% c #39333A",
"& c #3A333A",
"* c #3C343A",
"= c #3F363A",
"- c #45303A",
"; c #47303A",
": c #4D363A",
"> c #483B3A",
", c #53323A",
"< c #563339",
"1 c #56333A",
"2 c #55393A",
"3 c #603539",
"4 c #653639",
"5 c #603939",
"6 c #643F3A",
"7 c #6E3839",
"8 c #6A3F3A",
"9 c #733939",
"0 c #6D4039",
"q c #6F4039",
"w c #754139",
"e c #716D73",
"r c #777378",
"t c #7B797F",
"y c #823C39",
"u c #893D39",
"i c #923F39",
"p c #933F39",
"a c #854339",
"s c #8B4439",
"d c #964039",
"f c #914439",
"g c #974539",
"h c #9D4639",
"j c #A44339",
"k c #A74439",
"l c #A94839",
"z c #B34939",
"x c #B84A38",
"c c #BE4A38",
"v c #C44B38",
"b c #DA4E38",
"n c #806F73",
"m c #8B7678",
"M c #868286",
"N c #8B878A",
"B c #8C888A",
"V c #8B898D",
"C c #8E8A8D",
"Z c #918386",
"A c #9A898A",
"S c #9C8C8C",
"D c #9D8C8C",
"F c #939093",
"G c #9C989A",
"H c #A5A2A2",
"J c #ACA8A8",
"K c #B7B3B1",
"L c #BCB8B6",
"P c #C0BBB8",
"I c #C3BBB8",
"U c #C8C4C0",
"Y c #CCC8C4",
"T c #DAD5CF",
"R c #DDD7D1",
"E c #DED9D3",
"W c #E2DDD6",
"Q c #EBE6DE",
"! c #ECE7DF",
"~ c #EDE7DF",
"^ c #EEE8E0",
"/ c #FDF7ED",
"( c None",
/* pixels */
"((((((((((///////////////((((((((((((((///////////////((((((((((",
"((((((((((///////////////((((((((((((((///////////////((((((((((",
"((((((((((///////////////((((((((((((((///////////////((((((((((",
"((((((((((///////////////((((((((((((((///////////////((((((((((",
"((((((((((QQQQQQQQQQQQQQ~((((((((((((((~!QQQ!!!!QQQQQQ((((((((((",
"(((((////R              t/////((((/////t              R////(((((",
"(((((////R              t/////((((/////t              T////(((((",
"(((((////R              t/////((((/////t              R////(((((",
"(((((////R              t/////((((/////t              E////(((((",
"(((((TTTTI;-;;;;;;;;;;;;rTTTTW((((WTTTTe...........+..LTTTT(((((",
"////~    -bbbbbbbbbbbbbbp.   N////N    *>>>>>>>>>>>>>>.    ~////",
"////~    -bbbbbbbbbbbbbbp    V////V    *>>>>>>>>>>>>>>.    ~////",
"////~    -bbbbbbbbbbbbbbp.   V////V    *>>>>>>>>>>>>>>.    ~////",
"////~    -bbbbbbbbbbbbbbp.   V////V    *>>>>>>>>>>>>>>.    ~////",
"////~    -bbbbbbbbbbbbbbk<<<<mUUUUrXXXX->>>>>>>>>>>>>>.    ~////",
"////~    -bbbbbbbbbbbbbbbbbbbu    %>>>>>>>>>>>>>>>>>>>.    ~////",
"////~    -bbbbbbbbbbbbbbbbbbbu    %>>>>>>>>>>>>>>>>>>>.    ^////",
"////~    -bbbbbbbbbbbbbbbbbbbu    %>>>>>>>>>>>>>>>>>>>.    !////",
"////~    -bbbbbbbbbbbbbbbbbbbu    %>>>>>>>>>>>>>>>>>>>.    !////",
"////~    -bbbbbbbbbbbbbbbbbbbj44442>>>>>>>>>>>>>>>>>>>.    ^////",
"////~    -bbbbbbbbbbbbbbbbbbbbbbbbs>>>>>>>>>>>>>>>>>>>.    ^////",
"////~    ;bbbbbbbbbbbbbbbbbbbbbbbbs>>>>>>>>>>>>>>>>>>>.    !////",
"////~    ;bbbbbbbbbbbbbbbbbbbbbbbbs>>>>>>>>>>>>>>>>>>>.    !////",
"////~    ;bbbbbbbbbbbbbbbbbbbbbbbbs>>>>>>>>>>>>>>>>>>>.    !////",
"////~    -bbbbbbbbbbbbbbbbbbbchhhhw>>>>>>>>>>>>>>>>>>>.    !////",
"////~    -bbbbbbbbbbbbbbbbbbbg>>>>>>>>>>>>>>>>>>>>>>>>.    ^////",
"////~    -bbbbbbbbbbbbbbbbbbbg>>>>>>>>>>>>>>>>>>>>>>>>.    !////",
"////~    -bbbbbbbbbbbbbbbbbbbg>>>>>>>>>>>>>>>>>>>>>>>>.    !////",
"////~    -bbbbbbbbbbbbbbbbbbbg>>>>>>>>>>>>>>>>>>>>>>>>.    ~////",
"////^FFFFZyyyypbbbbbbbbbbbbbbxfsfs0>>>>>>>>>>>>>>*%%%#MFFFF^////",
"(((((////R    ,bbbbbbbbbbbbbbbbbbbs>>>>>>>>>>>>>>X    E////(((((",
"(((((////E    ,bbbbbbbbbbbbbbbbbbbs>>>>>>>>>>>>>>X    E////(((((",
"(((((////R    <bbbbbbbbbbbbbbbbbbbs>>>>>>>>>>>>>>X    E////(((((",
"(((((////R    ,bbbbbbbbbbbbbbbbbbbs>>>>>>>>>>>>>>X    R////(((((",
"(((((((((WHHHHA9999ibbbbbbbbbzaaaa6>>>>>>>>>*####CHHHHW(((((((((",
"((((((((((////Y    3bbbbbbbbbg>>>>>>>>>>>>>>X    Y////((((((((((",
"((((((((((////Y    3bbbbbbbbbg>>>>>>>>>>>>>>X    U////((((((((((",
"((((((((((////Y    3bbbbbbbbbg>>>>>>>>>>>>>>#    Y////((((((((((",
"((((((((((////Y    3bbbbbbbbbg>>>>>>>>>>>>>>X    Y////((((((((((",
"(((((((((((((((KKKKS4444ibbbbvllllw>>>>*#X##VKKKK(((((((((((((((",
"(((((((((((((((////L    7bbbbbbbbbs>>>>#    L////(((((((((((((((",
"(((((((((((((((////L    7bbbbbbbbbs>>>>#    L////(((((((((((((((",
"(((((((((((((((////L    7bbbbbbbbbs>>>>#    L////(((((((((((((((",
"(((((((((((((((////L    7bbbbbbbbbs>>>>#    L////(((((((((((((((",
"((((((((((((((((((((UUUUS<<<<50000:XXXXCUUUU((((((((((((((((((((",
"((((((((((((((((((((////J    %>>>>%    J////((((((((((((((((((((",
"((((((((((((((((((((////J    %>>>>#    J////((((((((((((((((((((",
"((((((((((((((((((((////J    #>>>>#    J////((((((((((((((((((((",
"((((((((((((((((((((////J    #>>>>%    J////((((((((((((((((((((",
"(((((((((((((((((((((((((TTTTN....NTTTT(((((((((((((((((((((((((",
"(((((((((((((((((((((((((////G    G////(((((((((((((((((((((((((",
"(((((((((((((((((((((((((////G    G////(((((((((((((((((((((((((",
"(((((((((((((((((((((((((////G    G////(((((((((((((((((((((((((",
"(((((((((((((((((((((((((////G    G////(((((((((((((((((((((((((",
"(((((((((((((((((((((((((((((~~QQQ~(((((((((((((((((((((((((((((",
"((((((((((((((((((((((((((((((////((((((((((((((((((((((((((((((",
"((((((((((((((((((((((((((((((////((((((((((((((((((((((((((((((",
"((((((((((((((((((((((((((((((////((((((((((((((((((((((((((((((",
"((((((((((((((((((((((((((((((////(((((((((((((((((((((((((((((("
};
