/* XPM */
static char *half_heart[] = {
/* columns rows colors chars-per-pixel */
"64 64 73 1 ",
"  c #2A2A3A",
". c #2F2D3A",
"X c #312E3A",
"o c #332F3A",
"O c #36313A",
"+ c #38323A",
"@ c #3A333A",
"# c #3C343A",
"$ c #3D353A",
"% c #3F363A",
"& c #45303A",
"* c #483B3A",
"= c #53323A",
"- c #52373A",
"; c #53383A",
": c #603539",
"> c #673F3A",
", c #6A3B39",
"< c #6E3839",
"1 c #7B3B39",
"2 c #714039",
"3 c #754139",
"4 c #726E74",
"5 c #7F7074",
"6 c #79757A",
"7 c #7B797F",
"8 c #893D39",
"9 c #8B4439",
"0 c #964039",
"q c #974039",
"w c #974539",
"e c #984139",
"r c #9C4139",
"t c #A24239",
"y c #A64339",
"u c #A24739",
"i c #B64938",
"p c #C04B38",
"a c #DA4E38",
"s c #8B7779",
"d c #7F7B80",
"f c #8B7D80",
"g c #858184",
"h c #878386",
"j c #8B898D",
"k c #948384",
"l c #998686",
"z c #9C989A",
"x c #ACA8A8",
"c c #BCB8B6",
"v c #C2BDBA",
"b c #C5BEBA",
"n c #CCC8C4",
"m c #DDD7D1",
"M c #EDE7DF",
"N c #EAE7E5",
"B c #EBE9E6",
"V c #ECE9E5",
"C c #EFECE8",
"Z c #F4F0EB",
"A c #F5F2ED",
"S c #FDF7ED",
"D c #FEFAF4",
"F c #FEFBF5",
"G c #FEFBF7",
"H c #FCFBF9",
"J c #FEFCF8",
"K c #FEFDF9",
"L c #FFFDFB",
"P c #FFFEFC",
"I c #FFFEFE",
"U c #FFFFFE",
"Y c white",
/* pixels */
"YYYYYYYYYLSSSSSSSSSSSSSSDPPYYYYYYYYYYYYDSSSSSSSSSSSSSSLYYYYYYYYY",
"YYYYYYYYYLSSSSSSSSSSSSSSDPYYYYYYYYYYYYYDSSSSSSSSSSSSSSLYYYYYYYYY",
"YYYYYYYYYYSSSSSSSSSSSSSSDYYYYYYYYYYYYYYDSSSSSSSSSSSSSSLYYYYYYYYY",
"YYYYYYYYYLSSSSSSSSSSSSSSDYYYYYYYYYYYYYYDSSSSSSSSSSSSSSYYYYYYYYYY",
"YYYYYYYYYGMMMMMMMMMMMMMMZPPPPPYYYYYPPYPZMMMMMMMMMMMMMMGYYYLYYYYY",
"YYYYYSSSSm              dSSSSLYYYYDSSSSd              mSSSSYYYYY",
"YYYYYSSSSm              7SSSSDPYYYDSSSS7              mSSSSYYYYY",
"YYYYLSSSSm              7SSSSDYYYYDSSSS7              mSSSSYYYYY",
"YYYYYSSSSm              7SSSSGYYYYHSSSS7              mSSSSLYYYY",
"LYLLHmmmmb&&&&&&&&&&&&&&5mmmmVLYPPNmmmm4..............vmmmmHLYLL",
"SSSSM    &aaaaaaaaaaaaaa8X   jSSSSj    #**************.    MSSSS",
"SSSSM    &aaaaaaaaaaaaaa8    jSSSSj    #**************.    MSSSS",
"SSSSM    &aaaaaaaaaaaaaat.   jSSSSj    #**************.    MSSSS",
"SSSSM    &aaaaaaaaaaaaaa8o   jSSSSj    #**************.    MSSSS",
"SSSSM    &aaaaaaaaaaaaaay====snnnn6XXXX%**************.    MSSSS",
"SSSSM    &aaaaaaaaaaaaaaaaaaa8    +*******************.    MSSSS",
"SSSSM    &aaaaaaaaaaaaaaaaaaa9    @*******************.    MSSSS",
"SSSSM    &aaaaaaaaaaaaaaaaaaa8    @*******************.    MSSSS",
"SSSSM    &aaaaaaaaaaaaaaaaaaa8    @*******************.    MSSSS",
"SSSSM    &aaaaaaaaaaaaaaaaaaay:::;;*******************.    MSSSS",
"SSSSM    &aaaaaaaaaaaaaaaaaaaaaaaaw*******************.    MSSSS",
"SSSSM    &aaaaaaaaaaaaaaaaaaaaaaaa9*******************.    MSSSS",
"SSSSM    &aaaaaaaaaaaaaaaaaaaaaaaa9*******************.    MSSSS",
"SSSSM    &aaaaaaaaaaaaaaaaaaaaaaaa9*******************.    MSSSS",
"SSSSM    &aaaaaaaaaaaaaaaaaaaiuuuu<*******************.    MSSSS",
"SSSSM    &aaaaaaaaaaaaaaaaaaaw************************.    MSSSS",
"SSSSM    &aaaaaaaaaaaaaaaaaaaw************************.    MSSSS",
"SSSSM    &aaaaaaaaaaaaaaaaaaaw************************     MSSSS",
"SSSSM    &aaaaaaaaaaaaaaaaaaaw************************X    MSSSS",
"GGGDZjjjjs8888raaaaaaaaaaaaaai99992**************@@@++fjjjjZGGGD",
"YYYYYSSSSm    =aaaaaaaaaaaaaaaaaaa9**************X    mSSSSLYYYY",
"YYYYYSSSSm    =aaaaaaaaaaaaaaaaaaa9**************X    mSSSSYYYYY",
"YYYYYSSSSm    =aaaaaaaaaaaaaaaaaaa9**************X    mSSSSLYYYY",
"YYYYLSSSSm    =aaaaaaaaaaaaaaaaaaa9**************X    mSSSSYYYYY",
"YYYYYGGGGCzzzzk1111eaaaaaaaaai99992*********%O+++gzzzzCGGGGYYYYY",
"YYYYYYYYYLSSSSn    :aaaaaaaaaw****%*********X    nSSSSLYYYYYYYYY",
"YYYYYYYYYLSSSSn    :aaaaaaaaaw**************X    nSSSSYYYYYYYYYY",
"YYYYYYYYYYSSSSn    :aaaaaaaaaw**************X    nSSSSLYYYYYYYYY",
"YYYYYYYYYLSSSSn    :aaaaaaaaaw**************O    nSSSSLYYYYYYYYY",
"YYYYYYYYYYLGGGNxxxxl<<<<qaaaapuuuw2****@OOOOhxxxxVGGGLYYYYYYYYYY",
"YYYYYYYYYYYYYYLSSSSc    <aaaaaaaaa9****O    cSSSSLYYYYYYYYYYYYYY",
"YYYYYYYYYYYYYYLSSSSc    <aaaaaaaaa9****O    cSSSSLYYYYYYYYYYYYYY",
"YYYYYYYYYYYYYYLSSSSc    <aaaaaaaaa9****O    cSSSSLYYYYYYYYYYYYYY",
"YYYYYYYYYYYYYYLSSSSc    <aaaaaaaaa9****O    cSSSSLYYYYYYYYYYYYYY",
"YYYYYYYYYYYYYYYLLGLNccccl::::,3333;OOXOhccccNHLLLYYYYYYYYYYYYYYY",
"YYYYYYYYYYYYYYYYYYYLSSSSx    +****@    xSSSSHYYYYYYYYYYYYYYYYYYY",
"YYYYYYYYYYYYYYYYYYYGSSSSx    +****@    xSSSSLYYYYYYYYYYYYYYYYYYY",
"YYYYYYYYYYYYYYYYYYYLSSSSx    +****@    xSSSSLYYYYYYYYYYYYYYYYYYY",
"YYYYYYYYYYYYYYYYYYYGSSSSx    O****+    xSSSSGYYYYYYYYYYYYYYYYYYY",
"YYYYYYYYYYYYYYYYYYYYLLLLBnnnnhXXXXgnnnnBLLLLYYYYYYYYYYYYYYYYYYYY",
"YYYYYYYYYYYYYYYYYYYYYYYYGSSSSz    zSSSSLYYYYYYYYYYYYYYYYYYYYYYYY",
"YYYYYYYYYYYYYYYYYYYYYYYYLSSSSz    zSSSSGYYYYYYYYYYYYYYYYYYYYYYYY",
"YYYYYYYYYYYYYYYYYYYYYYYYGSSSSz    zSSSSGYYYYYYYYYYYYYYYYYYYYYYYY",
"YYYYYYYYYYYYYYYYYYYYYYYYGSSSSz    zSSSSGYYYYYYYYYYYYYYYYYYYYYYYY",
"YYYYYYYYYYYYYYYYYYYYYYYYYLYLLCmmmmCLLYLYYYYYYYYYYYYYYYYYYYYYYYYY",
"YYYYYYYYYYYYYYYYYYYYYYYYYYYYYGSSSSGYYYYYYYYYYYYYYYYYYYYYYYYYYYYY",
"YYYYYYYYYYYYYYYYYYYYYYYYYYYYYGSSSSGYYYYYYYYYYYYYYYYYYYYYYYYYYYYY",
"YYYYYYYYYYYYYYYYYYYYYYYYYYYYYGSSSSGYYYYYYYYYYYYYYYYYYYYYYYYYYYYY",
"YYYYYYYYYYYYYYYYYYYYYYYYYYYYYGSSSSGYYYYYYYYYYYYYYYYYYYYYYYYYYYYY",
"YYYYYYYYYYYYYYYYYYYYYYYYYYYYYYYLYYYYYYYYYYYYYYYYYYYYYYYYYYYYYYYY",
"YYYYYYYYYYYYYYYYYYYYYYYYYYYYYYYYYYYYYYYYYYYYYYYYYYYYYYYYYYYYYYYY",
"YYYYYYYYYYYYYYYYYYYYYYYYYYYYYYYYYYYYYYYYYYYYYYYYYYYYYYYYYYYYYYYY",
"YYYYYYYYYYYYYYYYYYYYYYYYYYYYYYYYYYYYYYYYYYYYYYYYYYYYYYYYYYYYYYYY",
"YYYYYYYYYYYYYYYYYYYYYYYYYYYYYYYYYYYYYYYYYYYYYYYYYYYYYYYYYYYYYYYY"
};
