/* XPM */
static char * coin_1_xpm[] = {
"64 64 4 1",
" 	c #222222",
".	c #483B3A",
"+	c #775C55",
"@	c #FDF7ED",
"            ....                ............    ....            ",
"            ....                ............    ....            ",
"            ....                ............    ....            ",
"            ....                ............    ....            ",
"    ........................................................++++",
"    ........................................................++++",
"    ........................................................++++",
"    ........................................................++++",
"............................................................++++",
"............................................................++++",
"............................................................++++",
"............................................................++++",
"............................................................++++",
"............................................................++++",
"............................................................++++",
"............................................................++++",
"    ........................@@@@@@@@........................++++",
"    ........................@@@@@@@@........................++++",
"    ........................@@@@@@@@........................++++",
"    ........................@@@@@@@@........................++++",
"........................@@@@@@@@@@@@@@@@....................++++",
"........................@@@@@@@@@@@@@@@@....................++++",
"........................@@@@@@@@@@@@@@@@....................++++",
"........................@@@@@@@@@@@@@@@@....................++++",
"    ....................@@@@@@@@@@@@@@@@........................",
"    ....................@@@@@@@@@@@@@@@@........................",
"    ....................@@@@@@@@@@@@@@@@........................",
"    ....................@@@@@@@@@@@@@@@@........................",
"    ....................@@@@@@@@@@@@@@@@....................++++",
"    ....................@@@@@@@@@@@@@@@@....................++++",
"    ....................@@@@@@@@@@@@@@@@....................++++",
"    ....................@@@@@@@@@@@@@@@@....................++++",
"    ....................@@@@@@@@@@@@@@@@........................",
"    ....................@@@@@@@@@@@@@@@@........................",
"    ....................@@@@@@@@@@@@@@@@........................",
"    ....................@@@@@@@@@@@@@@@@........................",
"........................@@@@@@@@@@@@@@@@....................++++",
"........................@@@@@@@@@@@@@@@@....................++++",
"........................@@@@@@@@@@@@@@@@....................++++",
"........................@@@@@@@@@@@@@@@@....................++++",
"............................@@@@@@@@........................++++",
"............................@@@@@@@@........................++++",
"............................@@@@@@@@........................++++",
"............................@@@@@@@@........................++++",
"    ............................................................",
"    ............................................................",
"    ............................................................",
"    ............................................................",
"    ............................................................",
"    ............................................................",
"    ............................................................",
"    ............................................................",
"    ........................................................++++",
"    ........................................................++++",
"    ........................................................++++",
"    ........................................................++++",
"    ........................................................++++",
"    ........................................................++++",
"    ........................................................++++",
"    ........................................................++++",
"++++++++++++........++++....++++++++++++++++....++++++++++++++++",
"++++++++++++........++++....++++++++++++++++....++++++++++++++++",
"++++++++++++........++++....++++++++++++++++....++++++++++++++++",
"++++++++++++........++++....++++++++++++++++....++++++++++++++++"};
