/* XPM */
static char * coin_xpm[] = {
"64 64 19 1",
" 	c #222222",
".	c #483B3A",
"+	c #775C55",
"@	c #EE8E2E",
"#	c #F7CA9B",
"$	c #FDF7ED",
"%	c #F3AC65",
"&	c #F09E4C",
"*	c #F8C23C",
"=	c #FACB4B",
"-	c #FAD157",
";	c #FDF8F0",
">	c #FEFAF5",
",	c #FACB3E",
"'	c #FBD870",
")	c #F3AE6A",
"!	c #F6B840",
"~	c #F7BA39",
"{	c #FCE195",
"            ....                ............    ....            ",
"            ....                ............    ....            ",
"            ....                ............    ....            ",
"            ....                ............    ....            ",
"    ........................................................++++",
"    ........................................................++++",
"    ........................................................++++",
"    ........................................................++++",
"............................................................++++",
"............................................................++++",
"............................................................++++",
"............................................................++++",
"............................................................++++",
"............................................................++++",
"............................................................++++",
"............................................................++++",
"    .......................@@@@#$$$$........................++++",
"    .......................@@@@#$$$$........................++++",
"    .......................@@@@#$$$$........................++++",
"    .......................@@@@#$$$$........................++++",
"......................%&&&&****=----;;;;>...................++++",
"......................&@@@@,,,,,,,,,$$$$;...................++++",
"......................&@@@@,,,,,,,,,$$$$;...................++++",
"......................&@@@@,,,,,,,,,$$$$;...................++++",
"    ..................&@@@@,,,,,,,,,$$$$;.......................",
"    ..............@@@@*,,,,,,,,,,,,,,,,,'$$;$...................",
"    ..............@@@@*,,,,,,,,,,,,,,,,,'$$$$...................",
"    ..............@@@@*,,,,,,,,,,,,,,,,,'$$$$...................",
"    ..............@@@@*,,,,,,,,,,,,,,,,,'$$$$...............++++",
"    ..............@@@@*,,,,,,,,,,,,,,,,,'$$$$...............++++",
"    ..............@@@@*,,,,,,,,,,,,,,,,,'$$$$...............++++",
"    ..............@@@@*,,,,,,,,,,,,,,,,,'$$$$...............++++",
"    ..............@@@@*,,,,,,,,,,,,,,,,,'$$$$...................",
"    ..............@@@@*,,,,,,,,,,,,,,,,,'$$$$...................",
"    ..............@@@@*,,,,,,,,,,,,,,,,,'$$$$...................",
"    ..............@@@@*,,,,,,,,,,,,,,,,,'$$$$...................",
"..................@@@@*,,,,,,,,,,,,,,,,,'$$$$...............++++",
"..................@@@@*,,,,,,,,,,,,,,,,,'$$$$...............++++",
"..................))))!~~~~,,,,,,,,,''''{;;;;...............++++",
"......................&@@@@,,,,,,,,,$$$$;...................++++",
"......................&@@@@,,,,,,,,,$$$$;...................++++",
"......................&@@@@,,,,,,,,,$$$;;...................++++",
"......................&@@@@,,,,,,,,,$$$$;...................++++",
"...........................@@@@#$$$$........................++++",
"    .......................@@@@#$$$$............................",
"    .......................@@@@#$$$$............................",
"    .......................@@@@#$$$$............................",
"    .......................@@@@#$$$$............................",
"    ............................................................",
"    ............................................................",
"    ............................................................",
"    ............................................................",
"    ........................................................++++",
"    ........................................................++++",
"    ........................................................++++",
"    ........................................................++++",
"    ........................................................++++",
"    ........................................................++++",
"    ........................................................++++",
"    ........................................................++++",
"++++++++++++........++++....++++++++++++++++....++++++++++++++++",
"++++++++++++........++++....++++++++++++++++....++++++++++++++++",
"++++++++++++........++++....++++++++++++++++....++++++++++++++++",
"++++++++++++........++++....++++++++++++++++....++++++++++++++++"};
