/* XPM */
static char * coin_no_bg_xpm[] = {
"64 64 4 1",
" 	c None",
".	c #EE8E2E",
"+	c #FDF7ED",
"@	c #FACB3E",
"                                                                ",
"                                                                ",
"                                                                ",
"                                                                ",
"                                                                ",
"                                                                ",
"                                                                ",
"                                                                ",
"                                                                ",
"                                                                ",
"                                                                ",
"                          ......++++++                          ",
"                          ......++++++                          ",
"                          ......++++++                          ",
"                          ......++++++                          ",
"                          ......++++++                          ",
"                          ......++++++                          ",
"                    ......@@@@@@@@@@@@++++++                    ",
"                    ......@@@@@@@@@@@@++++++                    ",
"                    ......@@@@@@@@@@@@++++++                    ",
"                    ......@@@@@@@@@@@@++++++                    ",
"                    ......@@@@@@@@@@@@++++++                    ",
"                    ......@@@@@@@@@@@@++++++                    ",
"              ......@@@@@@@@@@@@@@@@@@@@@@@@++++++              ",
"              ......@@@@@@@@@@@@@@@@@@@@@@@@++++++              ",
"              ......@@@@@@@@@@@@@@@@@@@@@@@@++++++              ",
"              ......@@@@@@@@@@@@@@@@@@@@@@@@++++++              ",
"              ......@@@@@@@@@@@@@@@@@@@@@@@@++++++              ",
"              ......@@@@@@@@@@@@@@@@@@@@@@@@++++++              ",
"              ......@@@@@@@@@@@@@@@@@@@@@@@@++++++              ",
"              ......@@@@@@@@@@@@@@@@@@@@@@@@++++++              ",
"              ......@@@@@@@@@@@@@@@@@@@@@@@@++++++              ",
"              ......@@@@@@@@@@@@@@@@@@@@@@@@++++++              ",
"              ......@@@@@@@@@@@@@@@@@@@@@@@@++++++              ",
"              ......@@@@@@@@@@@@@@@@@@@@@@@@++++++              ",
"              ......@@@@@@@@@@@@@@@@@@@@@@@@++++++              ",
"              ......@@@@@@@@@@@@@@@@@@@@@@@@++++++              ",
"              ......@@@@@@@@@@@@@@@@@@@@@@@@++++++              ",
"              ......@@@@@@@@@@@@@@@@@@@@@@@@++++++              ",
"              ......@@@@@@@@@@@@@@@@@@@@@@@@++++++              ",
"              ......@@@@@@@@@@@@@@@@@@@@@@@@++++++              ",
"                    ......@@@@@@@@@@@@++++++                    ",
"                    ......@@@@@@@@@@@@++++++                    ",
"                    ......@@@@@@@@@@@@++++++                    ",
"                    ......@@@@@@@@@@@@++++++                    ",
"                    ......@@@@@@@@@@@@++++++                    ",
"                    ......@@@@@@@@@@@@++++++                    ",
"                          ......++++++                          ",
"                          ......++++++                          ",
"                          ......++++++                          ",
"                          ......++++++                          ",
"                          ......++++++                          ",
"                          ......++++++                          ",
"                                                                ",
"                                                                ",
"                                                                ",
"                                                                ",
"                                                                ",
"                                                                ",
"                                                                ",
"                                                                ",
"                                                                ",
"                                                                ",
"                                                                "};
