/* XPM */
static char * coin_2_xpm[] = {
"64 64 5 1",
" 	c #222222",
".	c #483B3A",
"+	c #775C55",
"@	c #FACB3E",
"#	c #EE8E2E",
"            ....                ............    ....            ",
"            ....                ............    ....            ",
"            ....                ............    ....            ",
"            ....                ............    ....            ",
"    ........................................................++++",
"    ........................................................++++",
"    ........................................................++++",
"    ........................................................++++",
"............................................................++++",
"............................................................++++",
"............................................................++++",
"............................................................++++",
"............................................................++++",
"............................................................++++",
"............................................................++++",
"............................................................++++",
"    ........................@@@@####........................++++",
"    ........................@@@@####........................++++",
"    ........................@@@@####........................++++",
"    ........................@@@@####........................++++",
"............................@@@@####........................++++",
"............................@@@@####........................++++",
"............................@@@@####........................++++",
"............................@@@@####........................++++",
"    ........................@@@@####............................",
"    ........................@@@@####............................",
"    ........................@@@@####............................",
"    ........................@@@@####............................",
"    ........................@@@@####........................++++",
"    ........................@@@@####........................++++",
"    ........................@@@@####........................++++",
"    ........................@@@@####........................++++",
"    ........................@@@@####............................",
"    ........................@@@@####............................",
"    ........................@@@@####............................",
"    ........................@@@@####............................",
"............................@@@@####........................++++",
"............................@@@@####........................++++",
"............................@@@@####........................++++",
"............................@@@@####........................++++",
"............................@@@@####........................++++",
"............................@@@@####........................++++",
"............................@@@@####........................++++",
"............................@@@@####........................++++",
"    ............................................................",
"    ............................................................",
"    ............................................................",
"    ............................................................",
"    ............................................................",
"    ............................................................",
"    ............................................................",
"    ............................................................",
"    ........................................................++++",
"    ........................................................++++",
"    ........................................................++++",
"    ........................................................++++",
"    ........................................................++++",
"    ........................................................++++",
"    ........................................................++++",
"    ........................................................++++",
"++++++++++++........++++....++++++++++++++++....++++++++++++++++",
"++++++++++++........++++....++++++++++++++++....++++++++++++++++",
"++++++++++++........++++....++++++++++++++++....++++++++++++++++",
"++++++++++++........++++....++++++++++++++++....++++++++++++++++"};
