/* XPM */
static char * coin_3_xpm[] = {
"64 64 6 1",
" 	c #222222",
".	c #483B3A",
"+	c #775C55",
"@	c #EE8E2E",
"#	c #FDF7ED",
"$	c #FACB3E",
"            ....                ............    ....            ",
"            ....                ............    ....            ",
"            ....                ............    ....            ",
"            ....                ............    ....            ",
"    ........................................................++++",
"    ........................................................++++",
"    ........................................................++++",
"    ........................................................++++",
"............................................................++++",
"............................................................++++",
"............................................................++++",
"............................................................++++",
"............................................................++++",
"............................................................++++",
"............................................................++++",
"............................................................++++",
"    ........................@@@@####........................++++",
"    ........................@@@@####........................++++",
"    ........................@@@@####........................++++",
"    ........................@@@@####........................++++",
"........................@@@@$$$$$$$$####....................++++",
"........................@@@@$$$$$$$$####....................++++",
"........................@@@@$$$$$$$$####....................++++",
"........................@@@@$$$$$$$$####....................++++",
"    ....................@@@@$$$$$$$$####........................",
"    ....................@@@@$$$$$$$$####........................",
"    ....................@@@@$$$$$$$$####........................",
"    ....................@@@@$$$$$$$$####........................",
"    ....................@@@@$$$$$$$$####....................++++",
"    ....................@@@@$$$$$$$$####....................++++",
"    ....................@@@@$$$$$$$$####....................++++",
"    ....................@@@@$$$$$$$$####....................++++",
"    ....................@@@@$$$$$$$$####........................",
"    ....................@@@@$$$$$$$$####........................",
"    ....................@@@@$$$$$$$$####........................",
"    ....................@@@@$$$$$$$$####........................",
"........................@@@@$$$$$$$$####....................++++",
"........................@@@@$$$$$$$$####....................++++",
"........................@@@@$$$$$$$$####....................++++",
"........................@@@@$$$$$$$$####....................++++",
"............................@@@@####........................++++",
"............................@@@@####........................++++",
"............................@@@@####........................++++",
"............................@@@@####........................++++",
"    ............................................................",
"    ............................................................",
"    ............................................................",
"    ............................................................",
"    ............................................................",
"    ............................................................",
"    ............................................................",
"    ............................................................",
"    ........................................................++++",
"    ........................................................++++",
"    ........................................................++++",
"    ........................................................++++",
"    ........................................................++++",
"    ........................................................++++",
"    ........................................................++++",
"    ........................................................++++",
"++++++++++++........++++....++++++++++++++++....++++++++++++++++",
"++++++++++++........++++....++++++++++++++++....++++++++++++++++",
"++++++++++++........++++....++++++++++++++++....++++++++++++++++",
"++++++++++++........++++....++++++++++++++++....++++++++++++++++"};
